<svg width="760" height="268" viewBox="0 0 760 268" fill="none" xmlns="http://www.w3.org/2000/svg">
<path d="M484.354 180.489V188.051H460.368V204.72H479.069V212.282H460.368V237H451.098V180.489H484.354ZM489.855 208.623C489.855 203.093 491.129 198.134 493.676 193.743C496.278 189.352 499.775 185.937 504.166 183.498C508.61 181.004 513.462 179.757 518.72 179.757C524.737 179.757 530.076 181.248 534.738 184.229C539.454 187.157 542.869 191.331 544.983 196.751H533.844C532.38 193.77 530.348 191.547 527.746 190.084C525.144 188.62 522.135 187.888 518.72 187.888C514.98 187.888 511.646 188.729 508.719 190.409C505.792 192.089 503.488 194.502 501.808 197.646C500.181 200.79 499.368 204.449 499.368 208.623C499.368 212.797 500.181 216.456 501.808 219.6C503.488 222.744 505.792 225.183 508.719 226.917C511.646 228.598 514.98 229.438 518.72 229.438C522.135 229.438 525.144 228.706 527.746 227.243C530.348 225.779 532.38 223.557 533.844 220.575H544.983C542.869 225.996 539.454 230.17 534.738 233.097C530.076 236.024 524.737 237.488 518.72 237.488C513.408 237.488 508.556 236.268 504.166 233.829C499.775 231.335 496.278 227.893 493.676 223.502C491.129 219.112 489.855 214.152 489.855 208.623ZM592.342 180.489V188.051H577.299V237H568.03V188.051H552.906V180.489H592.342ZM610.999 187.97V204.557H630.513V212.119H610.999V229.438H632.953V237H601.729V180.408H632.953V187.97H610.999Z" fill="#1E8D49"/>
<path d="M348.442 204.553C348.442 197.876 349.582 192.1 351.863 187.224C354.22 182.272 357.412 178.522 361.442 175.971C365.471 173.345 369.994 172.032 375.011 172.032C379.192 172.032 382.803 172.895 385.844 174.621C388.885 176.271 391.203 178.559 392.8 181.485V172.82H418V236.286H392.8V227.622C391.203 230.547 388.885 232.873 385.844 234.598C382.803 236.249 379.192 237.074 375.011 237.074C369.994 237.074 365.471 235.799 361.442 233.248C357.412 230.622 354.22 226.871 351.863 221.995C349.582 217.044 348.442 211.23 348.442 204.553ZM392.8 204.553C392.8 201.177 391.925 198.552 390.177 196.676C388.428 194.801 386.186 193.863 383.449 193.863C380.712 193.863 378.47 194.801 376.721 196.676C374.973 198.552 374.099 201.177 374.099 204.553C374.099 207.929 374.973 210.555 376.721 212.43C378.47 214.306 380.712 215.243 383.449 215.243C386.186 215.243 388.428 214.306 390.177 212.43C391.925 210.555 392.8 207.929 392.8 204.553Z" fill="#1E8D49"/>
<path d="M297.507 172.032C301.688 172.032 305.299 172.895 308.34 174.621C311.38 176.271 313.699 178.559 315.295 181.485V172.82H340.496V235.161C340.496 241.087 339.394 246.489 337.189 251.365C334.984 256.241 331.412 260.142 326.47 263.068C321.605 265.994 315.333 267.457 307.655 267.457C297.317 267.457 289.107 265.056 283.025 260.255C277.02 255.529 273.599 249.077 272.762 240.9H297.621C298.305 244.201 301.042 245.851 305.831 245.851C308.796 245.851 311.114 245.101 312.787 243.601C314.459 242.1 315.295 239.287 315.295 235.161V227.622C313.699 230.547 311.38 232.873 308.34 234.598C305.299 236.249 301.688 237.074 297.507 237.074C292.49 237.074 287.966 235.799 283.937 233.248C279.908 230.622 276.715 226.871 274.359 221.995C272.078 217.044 270.938 211.23 270.938 204.553C270.938 197.876 272.078 192.1 274.359 187.224C276.715 182.272 279.908 178.522 283.937 175.971C287.966 173.345 292.49 172.032 297.507 172.032ZM315.295 204.553C315.295 201.177 314.421 198.552 312.673 196.676C310.924 194.801 308.682 193.863 305.945 193.863C303.208 193.863 300.966 194.801 299.217 196.676C297.469 198.552 296.595 201.177 296.595 204.553C296.595 207.929 297.469 210.555 299.217 212.43C300.966 214.306 303.208 215.243 305.945 215.243C308.682 215.243 310.924 214.306 312.673 212.43C314.421 210.555 315.295 207.929 315.295 204.553Z" fill="#1E8D49"/>
<path d="M250.382 167.756C245.973 167.756 242.438 166.594 239.778 164.268C237.117 161.942 235.787 159.017 235.787 155.491C235.787 151.89 237.117 148.927 239.778 146.601C242.438 144.2 245.973 143 250.382 143C254.715 143 258.212 144.2 260.873 146.601C263.534 148.927 264.864 151.89 264.864 155.491C264.864 159.017 263.534 161.942 260.873 164.268C258.212 166.594 254.715 167.756 250.382 167.756ZM262.926 172.82V236.286H237.611V172.82H262.926Z" fill="#1E8D49"/>
<path d="M200.76 172.37C208.97 172.37 215.318 174.808 219.803 179.684C224.364 184.561 226.645 191.162 226.645 199.489V236.286H201.444V202.64C201.444 199.939 200.608 197.839 198.936 196.339C197.339 194.763 195.173 193.975 192.436 193.975C189.623 193.975 187.419 194.763 185.822 196.339C184.226 197.839 183.428 199.939 183.428 202.64V236.286H158.227V202.64C158.227 199.939 157.391 197.839 155.718 196.339C154.122 194.763 151.956 193.975 149.219 193.975C146.406 193.975 144.202 194.763 142.605 196.339C141.009 197.839 140.21 199.939 140.21 202.64V236.286H114.896V172.82H140.21V181.372C142.035 178.672 144.506 176.496 147.622 174.846C150.815 173.195 154.54 172.37 158.797 172.37C163.434 172.37 167.54 173.383 171.112 175.408C174.685 177.359 177.536 180.134 179.665 183.735C182.021 180.434 185.024 177.734 188.673 175.633C192.322 173.458 196.351 172.37 200.76 172.37Z" fill="#1E8D49"/>
<path d="M78.4708 224.246H51.5598L47.5688 236.286H21L50.5336 156.616H79.7251L109.145 236.286H82.4618L78.4708 224.246ZM72.3132 205.453L65.0153 183.285L57.7174 205.453H72.3132Z" fill="#1E8D49"/>
<path d="M637.861 85.71C637.861 73.9653 639.84 63.8042 643.799 55.2266C647.89 46.517 653.433 39.9188 660.427 35.4321C667.421 30.8134 675.272 28.504 683.982 28.504C691.24 28.504 697.508 30.0216 702.787 33.0568C708.065 35.9599 712.09 39.9848 714.861 45.1314V29.8896H758.607V141.53H714.861V126.289C712.09 131.435 708.065 135.526 702.787 138.561C697.508 141.464 691.24 142.916 683.982 142.916C675.272 142.916 667.421 140.673 660.427 136.186C653.433 131.567 647.89 124.969 643.799 116.391C639.84 107.682 637.861 97.4547 637.861 85.71ZM714.861 85.71C714.861 79.7717 713.344 75.153 710.309 71.8539C707.273 68.5548 703.381 66.9053 698.63 66.9053C693.879 66.9053 689.986 68.5548 686.951 71.8539C683.916 75.153 682.398 79.7717 682.398 85.71C682.398 91.6484 683.916 96.2671 686.951 99.5661C689.986 102.865 693.879 104.515 698.63 104.515C703.381 104.515 707.273 102.865 710.309 99.5661C713.344 96.2671 714.861 91.6484 714.861 85.71Z" fill="#264D97"/>
<path d="M583.967 29.0979C596.768 29.0979 606.731 33.3867 613.857 41.9643C621.115 50.5419 624.744 62.1546 624.744 76.8026V141.53H580.998V82.345C580.998 77.0665 579.547 72.9096 576.643 69.8745C573.872 66.7074 570.111 65.1238 565.361 65.1238C560.478 65.1238 556.651 66.7074 553.88 69.8745C551.109 72.9096 549.723 77.0665 549.723 82.345V141.53H505.779V29.8897H549.723V46.9129C553.154 41.6344 557.707 37.3456 563.381 34.0465C569.188 30.7474 576.05 29.0979 583.967 29.0979Z" fill="#264D97"/>
<path d="M432.987 142.916C421.77 142.916 411.675 140.607 402.701 135.988C393.728 131.369 386.668 124.771 381.521 116.193C376.507 107.484 374 97.3228 374 85.71C374 74.0973 376.507 64.0021 381.521 55.4245C386.668 46.7149 393.728 40.0508 402.701 35.4321C411.675 30.8134 421.77 28.504 432.987 28.504C444.204 28.504 454.299 30.8134 463.273 35.4321C472.246 40.0508 479.24 46.7149 484.255 55.4245C489.401 64.0021 491.975 74.0973 491.975 85.71C491.975 97.3228 489.401 107.484 484.255 116.193C479.24 124.771 472.246 131.369 463.273 135.988C454.299 140.607 444.204 142.916 432.987 142.916ZM432.987 104.911C437.078 104.911 440.509 103.327 443.28 100.16C446.051 96.8609 447.437 92.0442 447.437 85.71C447.437 79.3758 446.051 74.6251 443.28 71.458C440.509 68.1589 437.078 66.5094 432.987 66.5094C428.896 66.5094 425.465 68.1589 422.694 71.458C419.923 74.6251 418.537 79.3758 418.537 85.71C418.537 92.0442 419.857 96.8609 422.496 100.16C425.267 103.327 428.764 104.911 432.987 104.911Z" fill="#264D97"/>
<path d="M328.31 50.4759C333.186 44.0097 339.136 38.8632 346.162 35.0362C353.189 31.0773 360.501 29.0979 368.101 29.0979V76.0108H354.551C345.517 76.0108 338.85 77.4624 334.548 80.3656C330.39 83.2687 328.31 88.4153 328.31 95.8052V145H305H280.562V29.8897H328.31V50.4759Z" fill="#264D97"/>
<path d="M147.059 85.71C147.059 73.9653 149.039 63.8042 152.997 55.2266C157.088 46.517 162.631 39.9188 169.625 35.4321C176.619 30.8134 184.471 28.504 193.18 28.504C200.438 28.504 206.706 30.0216 211.985 33.0568C217.263 35.9599 221.288 39.9848 224.06 45.1314V29.8896H267.805V141.53H224.06V126.289C221.288 131.435 217.263 135.526 211.985 138.561C206.706 141.464 200.438 142.916 193.18 142.916C184.471 142.916 176.619 140.673 169.625 136.186C162.631 131.567 157.088 124.969 152.997 116.391C149.039 107.682 147.059 97.4547 147.059 85.71ZM224.06 85.71C224.06 79.7717 222.542 75.153 219.507 71.8539C216.472 68.5548 212.579 66.9053 207.828 66.9053C203.077 66.9053 199.185 68.5548 196.149 71.8539C193.114 75.153 191.597 79.7717 191.597 85.71C191.597 91.6484 193.114 96.2671 196.149 99.5661C199.185 102.865 203.077 104.515 207.828 104.515C212.579 104.515 216.472 102.865 219.507 99.5661C222.542 96.2671 224.06 91.6484 224.06 85.71Z" fill="#264D97"/>
<path d="M0 71.2601C0 57.4039 2.77123 45.0654 8.31367 34.2444C13.9881 23.4234 22.0378 15.0438 32.4629 9.10545C42.888 3.03515 55.1606 0 69.2806 0C81.4212 0 92.2422 2.30936 101.744 6.92807C111.377 11.4148 119.163 17.815 125.101 26.1287C131.171 34.4424 135.196 44.1417 137.176 55.2266H90.8566C88.7452 50.6078 85.71 47.0448 81.7511 44.5375C77.9242 41.8983 73.5034 40.5786 68.4888 40.5786C61.0989 40.5786 55.2265 43.3499 50.8718 48.8923C46.649 54.4348 44.5375 61.8907 44.5375 71.2601C44.5375 80.6294 46.649 88.0854 50.8718 93.6278C55.2265 99.1703 61.0989 101.941 68.4888 101.941C73.5034 101.941 77.9242 100.688 81.7511 98.1805C85.71 95.5413 88.7452 91.9123 90.8566 87.2936H137.176C135.196 98.3785 131.171 108.078 125.101 116.391C119.163 124.705 111.377 131.171 101.744 135.79C92.2422 140.277 81.4212 142.52 69.2806 142.52C55.1606 142.52 42.888 139.551 32.4629 133.613C22.0378 127.542 13.9881 119.097 8.31367 108.276C2.77123 97.4547 0 85.1162 0 71.2601Z" fill="#264D97"/>
</svg>
